<?xml version="1.0" encoding="UTF-8"?>
<svg width="600" height="300" viewBox="0 0 600 300" xmlns="http://www.w3.org/2000/svg">
<rect x="0.5" y="0.5" width="599" height="299" rx="16" fill="#1F1F1F" stroke="#3A3A3A" />
<text x="36" y="34" fill="#AAAAAA" font-size="12" font-family="DIN Round Pro, system-ui, sans-serif">DuoStats</text>
<text x="36" y="70" fill="#FFFFFF" font-size="20" font-family="DIN Round Pro, system-ui, sans-serif">@MussabO.</text>
<g xmlns:ns0="http://www.w3.org/2000/svg" transform="translate(23, 86) scale(0.92, 0.7666666666666667)"><ns0:g id="Page-1" stroke="none" stroke-width="1" fill="none" fill-rule="evenodd"><ns0:g id="streak" transform="translate(1.000000, 1.000000)" fill-rule="nonzero"><ns0:g id="Group" fill="#FF9600" stroke="#FFFFFF" stroke-width="2"><ns0:path d="M0.068,15.675 L0.044,7.216 C0.039,5.334 1.25,3.942 3.056,4.246 C3.413,4.306 3.998,4.491 4.306,4.656 L5.997,5.561 L9.247,1.464 C9.79255754,0.776391272 10.6222536,0.37555895 11.5,0.37555895 C12.3777464,0.37555895 13.2074425,0.776391272 13.753,1.464 L20.523,10 C22.1231469,11.939276 22.9988566,14.3747884 23,16.889 C23,23.034 17.843,28 11.5,28 C5.157,28 0,23.034 0,16.889 C0,16.481 0.023,16.076 0.068,15.675 Z" id="Path" /></ns0:g><ns0:g id="Group" transform="translate(7.000000, 11.000000)" fill="#FFC800"><ns0:path d="M1.012,5.077 C1.02645313,5.04002851 1.04561094,5.00507392 1.069,4.973 L3.719,1.364 C3.89306825,1.12674185 4.1697362,0.986581193 4.464,0.986581193 C4.7582638,0.986581193 5.03493175,1.12674185 5.209,1.364 L7.732,4.8 C8.54117469,5.59477404 8.99791508,6.68079318 9,7.815 C9,10.208 6.985,12.148 4.5,12.148 C2.015,12.148 0,10.208 0,7.815 C0,6.776 0.38,5.823 1.012,5.077 L1.012,5.077 Z" id="Path" /></ns0:g></ns0:g></ns0:g></g>
<text x="50" y="92" fill="#AAAAAA" font-size="10" font-family="DIN Round Pro, system-ui, sans-serif">Streak</text>
<text x="50" y="108" fill="#FFFFFF" font-size="12" font-family="DIN Round Pro, system-ui, sans-serif">129 days</text>
<path d="M240 84 230 100h8l-2 14 12-16h-8l2-14z" fill="#78C800" />
<text x="250" y="92" fill="#AAAAAA" font-size="10" font-family="DIN Round Pro, system-ui, sans-serif">Total XP</text>
<text x="250" y="108" fill="#FFFFFF" font-size="12" font-family="DIN Round Pro, system-ui, sans-serif">12640</text>
<g xmlns:ns0="http://www.w3.org/2000/svg" transform="translate(415, 85) scale(0.0375, 0.0375)"><ns0:g id="SVGRepo_bgCarrier" stroke-width="0" />

<ns0:g id="SVGRepo_tracerCarrier" stroke-linecap="round" stroke-linejoin="round" />

<ns0:g id="SVGRepo_iconCarrier"> <ns0:g id="icomoon-ignore"> </ns0:g> <ns0:path d="M16 2.672c-0.004 0-0.007 0-0.011 0-0.002 0-0.003 0-0.005 0-0.005 0-0.010 0.001-0.016 0.001-7.347 0.017-13.296 5.977-13.296 13.327 0 7.348 5.949 13.309 13.296 13.327 0.005 0 0.010 0.001 0.016 0.001 0.002 0 0.004 0 0.005 0 0.004 0 0.008 0 0.011 0 7.36 0 13.328-5.968 13.328-13.328s-5.968-13.328-13.328-13.328zM16.533 10.648c1.413-0.039 2.788-0.225 4.112-0.548 0.399 1.571 0.647 3.382 0.686 5.367h-4.798v-4.819zM16.533 9.582v-5.759c1.437 0.398 2.893 2.314 3.821 5.252-1.231 0.297-2.509 0.47-3.821 0.507zM15.467 3.81v5.772c-1.323-0.037-2.611-0.213-3.852-0.515 0.936-2.956 2.405-4.879 3.852-5.256zM15.467 10.647v4.82h-4.831c0.039-1.988 0.287-3.801 0.687-5.373 1.334 0.326 2.72 0.515 4.144 0.553zM9.563 15.467h-5.811c0.118-2.741 1.139-5.252 2.773-7.241 1.187 0.654 2.446 1.189 3.766 1.589-0.431 1.7-0.689 3.617-0.728 5.652zM9.563 16.533c0.039 2.034 0.297 3.951 0.728 5.651-1.319 0.401-2.579 0.936-3.766 1.59-1.635-1.989-2.656-4.5-2.773-7.241h5.811zM10.636 16.533h4.831v4.814c-1.424 0.038-2.81 0.228-4.145 0.555-0.399-1.571-0.647-3.383-0.686-5.369zM15.467 22.412v5.778c-1.448-0.378-2.919-2.303-3.854-5.263 1.241-0.302 2.53-0.478 3.854-0.515zM16.533 28.178v-5.765c1.313 0.038 2.591 0.211 3.822 0.508-0.928 2.941-2.384 4.86-3.822 5.257zM16.533 21.347v-4.814h4.798c-0.039 1.983-0.286 3.791-0.684 5.361-1.325-0.323-2.7-0.51-4.113-0.548zM22.404 16.533h5.845c-0.118 2.741-1.138 5.251-2.773 7.24-1.197-0.658-2.467-1.197-3.797-1.599 0.43-1.698 0.687-3.611 0.726-5.64zM22.404 15.467c-0.039-2.033-0.297-3.946-0.727-5.646 1.33-0.402 2.599-0.94 3.795-1.598 1.636 1.989 2.658 4.501 2.776 7.244h-5.845zM24.738 7.409c-1.061 0.564-2.18 1.031-3.35 1.385-0.623-2.005-1.498-3.642-2.533-4.717 2.27 0.545 4.297 1.719 5.883 3.332zM13.103 4.087c-1.029 1.073-1.9 2.702-2.521 4.697-1.158-0.353-2.268-0.815-3.319-1.375 1.575-1.602 3.587-2.774 5.84-3.322zM7.259 24.587c1.052-0.561 2.163-1.024 3.322-1.377 0.621 1.997 1.492 3.629 2.522 4.702-2.255-0.549-4.268-1.721-5.844-3.326zM18.855 27.922c1.036-1.075 1.911-2.712 2.535-4.721 1.17 0.355 2.29 0.82 3.351 1.387-1.586 1.614-3.614 2.791-5.886 3.334z" fill="#b0b0b0"> </ns0:path> </ns0:g>

</g>
<text x="452" y="92" fill="#AAAAAA" font-size="10" font-family="DIN Round Pro, system-ui, sans-serif">Languages</text>
<g xmlns:ns0="http://www.w3.org/2000/svg" transform="translate(450, 100) scale(0.35714285714285715, 0.2777777777777778)"><ns0:g clip-path="url(#clip0_129_1008)"><ns0:path fill-rule="evenodd" clip-rule="evenodd" d="M12.563 0H57.437C61.8054 0 63.3895 0.454845 64.9865 1.30895C66.5836 2.16305 67.8369 3.41642 68.691 5.01346C69.5452 6.61049 70 8.1946 70 12.563V41.437C70 45.8054 69.5452 47.3895 68.691 48.9865C67.8369 50.5836 66.5836 51.8369 64.9865 52.6911C63.3895 53.5452 61.8054 54 57.437 54H12.563C8.1946 54 6.61049 53.5452 5.01346 52.6911C3.41642 51.8369 2.16305 50.5836 1.30895 48.9865C0.454845 47.3895 0 45.8054 0 41.437V12.563C0 8.1946 0.454845 6.61049 1.30895 5.01346C2.16305 3.41642 3.41642 2.16305 5.01346 1.30895C6.61049 0.454845 8.1946 0 12.563 0Z" fill="#EEEEEE" /><ns0:path d="M35 41C42.732 41 49 34.732 49 27C49 19.268 42.732 13 35 13C27.268 13 21 19.268 21 27C21 34.732 27.268 41 35 41Z" fill="#FF4B4B" /></ns0:g><ns0:defs><ns0:clipPath id="clip0_129_1008"><ns0:rect width="70" height="54" fill="white" /></ns0:clipPath></ns0:defs></g>
<g xmlns:ns0="http://www.w3.org/2000/svg" transform="translate(480, 100) scale(0.35714285714285715, 0.2777777777777778)"><ns0:g clip-path="url(#clip0_129_593)"><ns0:path fill-rule="evenodd" clip-rule="evenodd" d="M12.563 0H57.437C61.8054 0 63.3895 0.454846 64.9865 1.30895C66.5836 2.16305 67.8369 3.41642 68.691 5.01346C69.5452 6.61049 70 8.1946 70 12.563V41.437C70 45.8054 69.5452 47.3895 68.691 48.9865C67.8369 50.5836 66.5836 51.8369 64.9865 52.6911C63.3895 53.5452 61.8054 54 57.437 54H12.563C8.1946 54 6.61049 53.5452 5.01346 52.6911C3.41642 51.8369 2.16305 50.5836 1.30895 48.9865C0.454846 47.3895 0 45.8054 0 41.437V12.563C0 8.1946 0.454846 6.61049 1.30895 5.01346C2.16305 3.41642 3.41642 2.16305 5.01346 1.30895C6.61049 0.454846 8.1946 0 12.563 0Z" fill="#EEEEEE" /><ns0:path fill-rule="evenodd" clip-rule="evenodd" d="M12.563 0H57.437C61.8054 0 63.3895 0.454846 64.9865 1.30895C66.5836 2.16305 67.8369 3.41642 68.691 5.01346C68.8631 5.3352 69.019 5.65643 69.1582 6H0.841797C0.981005 5.65643 1.13687 5.3352 1.30895 5.01346C2.16305 3.41642 3.41641 2.16305 5.01345 1.30895C6.61049 0.454846 8.19459 0 12.563 0Z" fill="#FF4B4B" /><ns0:path fill-rule="evenodd" clip-rule="evenodd" d="M69.9973 12C69.9991 12.1824 70 12.37 70 12.563V18H0V12.563C0 12.37 0.000888148 12.1824 0.00265965 12H69.9973Z" fill="#FF4B4B" /><ns0:path fill-rule="evenodd" clip-rule="evenodd" d="M70 24V30H0V24H70Z" fill="#FF4B4B" /><ns0:path fill-rule="evenodd" clip-rule="evenodd" d="M70 41.437C70 41.63 69.9991 41.8176 69.9973 42H0.00265965C0.000888148 41.8176 0 41.63 0 41.437V36H70V41.437Z" fill="#FF4B4B" /><ns0:path fill-rule="evenodd" clip-rule="evenodd" d="M69.1582 48C69.019 48.3436 68.8631 48.6648 68.691 48.9865C67.8369 50.5836 66.5836 51.8369 64.9865 52.6911C63.3895 53.5452 61.8054 54 57.437 54H12.563C8.19459 54 6.61049 53.5452 5.01345 52.6911C3.41641 51.8369 2.16305 50.5836 1.30895 48.9865C1.13687 48.6648 0.981005 48.3436 0.841797 48H69.1582Z" fill="#FF4B4B" /><ns0:path fill-rule="evenodd" clip-rule="evenodd" d="M12.563 0H35V24H0V12.563C0 8.1946 0.454846 6.61049 1.30895 5.01346C2.16305 3.41642 3.41642 2.16305 5.01346 1.30895C6.61049 0.454846 8.1946 0 12.563 0Z" fill="#1CB0F6" /><ns0:path d="M27.8065 9.60198L26.531 10.2726C26.1304 10.4832 25.635 10.3292 25.4245 9.92863C25.3406 9.76914 25.3117 9.58645 25.3421 9.40885L25.5857 7.98849C25.6089 7.85332 25.5641 7.71541 25.4659 7.61968L24.434 6.61377C24.1099 6.29791 24.1033 5.77918 24.4191 5.45514C24.5449 5.32611 24.7097 5.24214 24.888 5.21623L26.3142 5.009C26.4499 4.98928 26.5672 4.90404 26.6279 4.78107L27.2657 3.48877C27.4659 3.08299 27.9572 2.91639 28.363 3.11665C28.5246 3.1964 28.6554 3.32719 28.7351 3.48877L29.3729 4.78107C29.4336 4.90404 29.5509 4.98928 29.6867 5.009L31.1128 5.21623C31.5606 5.2813 31.8709 5.69707 31.8058 6.14487C31.7799 6.32319 31.6959 6.48799 31.5669 6.61377L30.5349 7.61968C30.4367 7.71541 30.3919 7.85332 30.4151 7.98849L30.6587 9.40885C30.7352 9.85485 30.4357 10.2784 29.9897 10.3549C29.8121 10.3854 29.6294 10.3564 29.4699 10.2726L28.1943 9.60198C28.0729 9.53816 27.9279 9.53816 27.8065 9.60198Z" fill="white" /><ns0:path d="M27.8065 19.602L26.531 20.2726C26.1304 20.4832 25.635 20.3292 25.4245 19.9286C25.3406 19.7691 25.3117 19.5865 25.3421 19.4089L25.5857 17.9885C25.6089 17.8533 25.5641 17.7154 25.4659 17.6197L24.434 16.6138C24.1099 16.2979 24.1033 15.7792 24.4191 15.4551C24.5449 15.3261 24.7097 15.2421 24.888 15.2162L26.3142 15.009C26.4499 14.9893 26.5672 14.904 26.6279 14.7811L27.2657 13.4888C27.4659 13.083 27.9572 12.9164 28.363 13.1167C28.5246 13.1964 28.6554 13.3272 28.7351 13.4888L29.3729 14.7811C29.4336 14.904 29.5509 14.9893 29.6867 15.009L31.1128 15.2162C31.5606 15.2813 31.8709 15.6971 31.8058 16.1449C31.7799 16.3232 31.6959 16.488 31.5669 16.6138L30.5349 17.6197C30.4367 17.7154 30.3919 17.8533 30.4151 17.9885L30.6587 19.4089C30.7352 19.8549 30.4357 20.2784 29.9897 20.3549C29.8121 20.3854 29.6294 20.3564 29.4699 20.2726L28.1943 19.602C28.0729 19.5382 27.9279 19.5382 27.8065 19.602Z" fill="white" /><ns0:path d="M17.8065 9.60198L16.531 10.2726C16.1304 10.4832 15.635 10.3292 15.4245 9.92863C15.3406 9.76914 15.3117 9.58645 15.3421 9.40885L15.5857 7.98849C15.6089 7.85332 15.5641 7.71541 15.4659 7.61968L14.434 6.61377C14.1099 6.29791 14.1033 5.77918 14.4191 5.45514C14.5449 5.32611 14.7097 5.24214 14.888 5.21623L16.3142 5.009C16.4499 4.98928 16.5672 4.90404 16.6279 4.78107L17.2657 3.48877C17.466 3.08299 17.9572 2.91639 18.363 3.11665C18.5246 3.1964 18.6554 3.32719 18.7351 3.48877L19.3729 4.78107C19.4336 4.90404 19.5509 4.98928 19.6867 5.009L21.1128 5.21623C21.5606 5.2813 21.8709 5.69707 21.8058 6.14487C21.7799 6.32319 21.6959 6.48799 21.5669 6.61377L20.5349 7.61968C20.4367 7.71541 20.3919 7.85332 20.4151 7.98849L20.6587 9.40885C20.7352 9.85485 20.4357 10.2784 19.9897 10.3549C19.8121 10.3854 19.6294 10.3564 19.4699 10.2726L18.1943 9.60198C18.0729 9.53816 17.9279 9.53816 17.8065 9.60198Z" fill="white" /><ns0:path d="M17.8065 19.602L16.531 20.2726C16.1304 20.4832 15.635 20.3292 15.4245 19.9286C15.3406 19.7691 15.3117 19.5865 15.3421 19.4089L15.5857 17.9885C15.6089 17.8533 15.5641 17.7154 15.4659 17.6197L14.434 16.6138C14.1099 16.2979 14.1033 15.7792 14.4191 15.4551C14.5449 15.3261 14.7097 15.2421 14.888 15.2162L16.3142 15.009C16.4499 14.9893 16.5672 14.904 16.6279 14.7811L17.2657 13.4888C17.466 13.083 17.9572 12.9164 18.363 13.1167C18.5246 13.1964 18.6554 13.3272 18.7351 13.4888L19.3729 14.7811C19.4336 14.904 19.5509 14.9893 19.6867 15.009L21.1128 15.2162C21.5606 15.2813 21.8709 15.6971 21.8058 16.1449C21.7799 16.3232 21.6959 16.488 21.5669 16.6138L20.5349 17.6197C20.4367 17.7154 20.3919 17.8533 20.4151 17.9885L20.6587 19.4089C20.7352 19.8549 20.4357 20.2784 19.9897 20.3549C19.8121 20.3854 19.6294 20.3564 19.4699 20.2726L18.1943 19.602C18.0729 19.5382 17.9279 19.5382 17.8065 19.602Z" fill="white" /><ns0:path d="M7.80652 9.60198L6.53095 10.2726C6.13042 10.4832 5.63503 10.3292 5.42446 9.92863C5.34061 9.76914 5.31167 9.58645 5.34213 9.40885L5.58575 7.98849C5.60893 7.85332 5.56412 7.71541 5.46591 7.61968L4.43395 6.61377C4.10992 6.29791 4.10329 5.77918 4.41915 5.45514C4.54492 5.32611 4.70973 5.24214 4.88804 5.21623L6.31418 5.009C6.44989 4.98928 6.56721 4.90404 6.6279 4.78107L7.26569 3.48877C7.46595 3.08299 7.95725 2.91639 8.36303 3.11665C8.52461 3.1964 8.6554 3.32719 8.73515 3.48877L9.37293 4.78107C9.43363 4.90404 9.55095 4.98928 9.68666 5.009L11.1128 5.21623C11.5606 5.2813 11.8709 5.69707 11.8058 6.14487C11.7799 6.32319 11.6959 6.48799 11.5669 6.61377L10.5349 7.61968C10.4367 7.71541 10.3919 7.85332 10.4151 7.98849L10.6587 9.40885C10.7352 9.85485 10.4357 10.2784 9.98966 10.3549C9.81206 10.3854 9.62937 10.3564 9.46988 10.2726L8.19431 9.60198C8.07292 9.53816 7.92791 9.53816 7.80652 9.60198Z" fill="white" /><ns0:path d="M7.80652 19.602L6.53095 20.2726C6.13042 20.4832 5.63503 20.3292 5.42446 19.9286C5.34061 19.7691 5.31167 19.5865 5.34213 19.4089L5.58575 17.9885C5.60893 17.8533 5.56412 17.7154 5.46591 17.6197L4.43395 16.6138C4.10992 16.2979 4.10329 15.7792 4.41915 15.4551C4.54492 15.3261 4.70973 15.2421 4.88804 15.2162L6.31418 15.009C6.44989 14.9893 6.56721 14.904 6.6279 14.7811L7.26569 13.4888C7.46595 13.083 7.95725 12.9164 8.36303 13.1167C8.52461 13.1964 8.6554 13.3272 8.73515 13.4888L9.37293 14.7811C9.43363 14.904 9.55095 14.9893 9.68666 15.009L11.1128 15.2162C11.5606 15.2813 11.8709 15.6971 11.8058 16.1449C11.7799 16.3232 11.6959 16.488 11.5669 16.6138L10.5349 17.6197C10.4367 17.7154 10.3919 17.8533 10.4151 17.9885L10.6587 19.4089C10.7352 19.8549 10.4357 20.2784 9.98966 20.3549C9.81206 20.3854 9.62937 20.3564 9.46988 20.2726L8.19431 19.602C8.07292 19.5382 7.92791 19.5382 7.80652 19.602Z" fill="white" /></ns0:g><ns0:defs><ns0:clipPath id="clip0_129_593"><ns0:rect width="70" height="54" fill="white" /></ns0:clipPath></ns0:defs></g>
<g stroke="#3A3A3A" stroke-width="1">
<line x1="70" y1="250" x2="560" y2="250" />
<line x1="70" y1="210" x2="560" y2="210" />
<line x1="70" y1="170" x2="560" y2="170" />
<line x1="70" y1="130" x2="560" y2="130" />
</g>
<g fill="#AAAAAA" font-size="10" font-family="DIN Round Pro, system-ui, sans-serif">
<text x="30" y="254">0</text>
<text x="24" y="214">300</text>
<text x="24" y="174">600</text>
<text x="24" y="134">900</text>
</g>
<polyline points="70.0,147.45555555555558 151.66666666666669,205.0222222222222 233.33333333333334,241.93333333333334 315.0,244.5 396.6666666666667,223.4777777777778 478.33333333333337,230.32222222222222 560.0,230.2" fill="none" stroke="#1DB0F6" stroke-width="2" stroke-linecap="round" stroke-linejoin="round" />
<circle cx="70.0" cy="147.45555555555558" r="3.5" fill="#1DB0F6" />
<circle cx="151.66666666666669" cy="205.0222222222222" r="3.5" fill="#1DB0F6" />
<circle cx="233.33333333333334" cy="241.93333333333334" r="3.5" fill="#1DB0F6" />
<circle cx="315.0" cy="244.5" r="3.5" fill="#1DB0F6" />
<circle cx="396.6666666666667" cy="223.4777777777778" r="3.5" fill="#1DB0F6" />
<circle cx="478.33333333333337" cy="230.32222222222222" r="3.5" fill="#1DB0F6" />
<circle cx="560.0" cy="230.2" r="3.5" fill="#1DB0F6" />
<text x="70.0" y="272" fill="#AAAAAA" font-size="10" text-anchor="middle" font-family="DIN Round Pro, system-ui, sans-serif">F</text>
<text x="151.66666666666669" y="272" fill="#AAAAAA" font-size="10" text-anchor="middle" font-family="DIN Round Pro, system-ui, sans-serif">S</text>
<text x="233.33333333333334" y="272" fill="#AAAAAA" font-size="10" text-anchor="middle" font-family="DIN Round Pro, system-ui, sans-serif">S</text>
<text x="315.0" y="272" fill="#AAAAAA" font-size="10" text-anchor="middle" font-family="DIN Round Pro, system-ui, sans-serif">M</text>
<text x="396.6666666666667" y="272" fill="#AAAAAA" font-size="10" text-anchor="middle" font-family="DIN Round Pro, system-ui, sans-serif">T</text>
<text x="478.33333333333337" y="272" fill="#AAAAAA" font-size="10" text-anchor="middle" font-family="DIN Round Pro, system-ui, sans-serif">W</text>
<text x="560.0" y="272" fill="#AAAAAA" font-size="10" text-anchor="middle" font-family="DIN Round Pro, system-ui, sans-serif">T</text>
<circle cx="70" cy="284" r="4" fill="#1DB0F6" />
<text x="82" y="288" fill="#AAAAAA" font-size="10" font-family="DIN Round Pro, system-ui, sans-serif">MussabO.</text>
<text x="560" y="288" fill="#AAAAAA" font-size="10" text-anchor="end" font-family="DIN Round Pro, system-ui, sans-serif">1858 XP</text>
</svg>