<?xml version="1.0" encoding="UTF-8"?>
<svg width="600" height="300" viewBox="0 0 600 300" xmlns="http://www.w3.org/2000/svg">
<rect x="0.5" y="0.5" width="599" height="299" rx="16" fill="#1F1F1F" stroke="#3A3A3A" />
<text x="36" y="34" fill="#AAAAAA" font-size="12" font-family="DIN Round Pro, system-ui, sans-serif">DuoStats</text>
<text x="36" y="70" fill="#FFFFFF" font-size="20" font-family="DIN Round Pro, system-ui, sans-serif">@MussabO.</text>
<image href="Images/Streak.svg" x="23" y="86" width="23" height="23" />
<text x="50" y="92" fill="#AAAAAA" font-size="10" font-family="DIN Round Pro, system-ui, sans-serif">Streak</text>
<text x="50" y="108" fill="#FFFFFF" font-size="12" font-family="DIN Round Pro, system-ui, sans-serif">129 days</text>
<path d="M240 84 230 100h8l-2 14 12-16h-8l2-14z" fill="#78C800" />
<text x="250" y="92" fill="#AAAAAA" font-size="10" font-family="DIN Round Pro, system-ui, sans-serif">Total XP</text>
<text x="250" y="108" fill="#FFFFFF" font-size="12" font-family="DIN Round Pro, system-ui, sans-serif">12640</text>
<image href="Images/Languages.svg" x="415" y="85" width="30" height="30" />
<text x="464" y="92" fill="#AAAAAA" font-size="10" font-family="DIN Round Pro, system-ui, sans-serif">Languages</text>
<image href="Images/Japanese.svg" x="450" y="100" width="25" height="15" />
<image href="Images/English.svg" x="480" y="100" width="25" height="15" />
<g stroke="#3A3A3A" stroke-width="1">
<line x1="70" y1="250" x2="560" y2="250" />
<line x1="70" y1="210" x2="560" y2="210" />
<line x1="70" y1="170" x2="560" y2="170" />
<line x1="70" y1="130" x2="560" y2="130" />
</g>
<g fill="#AAAAAA" font-size="10" font-family="DIN Round Pro, system-ui, sans-serif">
<text x="30" y="254">0</text>
<text x="24" y="214">300</text>
<text x="24" y="174">600</text>
<text x="24" y="134">900</text>
</g>
<polyline points="70.0,147.45555555555558 151.66666666666669,205.0222222222222 233.33333333333334,241.93333333333334 315.0,244.5 396.6666666666667,223.4777777777778 478.33333333333337,230.32222222222222 560.0,230.2" fill="none" stroke="#1DB0F6" stroke-width="2" stroke-linecap="round" stroke-linejoin="round" />
<circle cx="70.0" cy="147.45555555555558" r="3.5" fill="#1DB0F6" />
<circle cx="151.66666666666669" cy="205.0222222222222" r="3.5" fill="#1DB0F6" />
<circle cx="233.33333333333334" cy="241.93333333333334" r="3.5" fill="#1DB0F6" />
<circle cx="315.0" cy="244.5" r="3.5" fill="#1DB0F6" />
<circle cx="396.6666666666667" cy="223.4777777777778" r="3.5" fill="#1DB0F6" />
<circle cx="478.33333333333337" cy="230.32222222222222" r="3.5" fill="#1DB0F6" />
<circle cx="560.0" cy="230.2" r="3.5" fill="#1DB0F6" />
<text x="70.0" y="272" fill="#AAAAAA" font-size="10" text-anchor="middle" font-family="DIN Round Pro, system-ui, sans-serif">F</text>
<text x="151.66666666666669" y="272" fill="#AAAAAA" font-size="10" text-anchor="middle" font-family="DIN Round Pro, system-ui, sans-serif">S</text>
<text x="233.33333333333334" y="272" fill="#AAAAAA" font-size="10" text-anchor="middle" font-family="DIN Round Pro, system-ui, sans-serif">S</text>
<text x="315.0" y="272" fill="#AAAAAA" font-size="10" text-anchor="middle" font-family="DIN Round Pro, system-ui, sans-serif">M</text>
<text x="396.6666666666667" y="272" fill="#AAAAAA" font-size="10" text-anchor="middle" font-family="DIN Round Pro, system-ui, sans-serif">T</text>
<text x="478.33333333333337" y="272" fill="#AAAAAA" font-size="10" text-anchor="middle" font-family="DIN Round Pro, system-ui, sans-serif">W</text>
<text x="560.0" y="272" fill="#AAAAAA" font-size="10" text-anchor="middle" font-family="DIN Round Pro, system-ui, sans-serif">T</text>
<circle cx="70" cy="284" r="4" fill="#1DB0F6" />
<text x="82" y="288" fill="#AAAAAA" font-size="10" font-family="DIN Round Pro, system-ui, sans-serif">MussabO.</text>
<text x="560" y="288" fill="#AAAAAA" font-size="10" text-anchor="end" font-family="DIN Round Pro, system-ui, sans-serif">1858 XP</text>
</svg>